<svg
        xmlns="http://www.w3.org/2000/svg"
        width="312"
        height="210"
        viewBox="0 0 312 210"
>
    <path
            transform="matrix(0.9239557981491089, 0, 0, 0.9239557981491089, 150, 160)"
            d="M-119.25999999999999-34.56L-119.25999999999999-34.56L-96.21999999999998-34.56Q-93.82-34.56 -92.13999999999999-32.88Q-90.45999999999998-31.2 -90.45999999999998-28.8L-90.45999999999998-28.8L-90.45999999999998 0L-94.33999999999997 0L-94.33999999999997-12.62L-121.12999999999998-12.62L-121.12999999999998 0L-125.01999999999998 0L-125.01999999999998-28.8Q-125.01999999999998-31.2 -123.33999999999999-32.88Q-121.65999999999998-34.56 -119.25999999999999-34.56ZM-121.12999999999998-28.8L-121.12999999999998-16.51L-94.33999999999997-16.51L-94.33999999999997-28.8Q-94.33999999999997-29.57 -94.89999999999998-30.12Q-95.44999999999999-30.67 -96.21999999999998-30.67L-96.21999999999998-30.67L-119.25999999999999-30.67Q-120.01999999999998-30.67 -120.57999999999998-30.12Q-121.12999999999998-29.57 -121.12999999999998-28.8L-121.12999999999998-28.8ZM-60.691999999999965-5.81L-60.691999999999965-27.84L-56.76199999999997-27.84L-56.76199999999997-5.81Q-56.76199999999997-3.41 -58.46199999999997-1.7Q-60.17199999999997 0 -62.611999999999966 0L-62.611999999999966 0L-79.32199999999997 0Q-81.72199999999997 0 -83.42199999999997-1.7Q-85.13199999999996-3.41 -85.13199999999996-5.81L-85.13199999999996-5.81L-85.13199999999996-27.84L-81.19199999999996-27.84L-81.19199999999996-5.81Q-81.19199999999996-5.04 -80.64199999999997-4.49Q-80.09199999999997-3.94 -79.32199999999997-3.94L-79.32199999999997-3.94L-62.611999999999966-3.94Q-61.85199999999997-3.94 -61.27199999999997-4.49Q-60.691999999999965-5.04 -60.691999999999965-5.81L-60.691999999999965-5.81ZM-36.50199999999998-27.84L-36.50199999999998-23.9L-48.55199999999998-23.9L-48.55199999999998-5.81Q-48.55199999999998-5.04 -48.00199999999998-4.49Q-47.451999999999984-3.94 -46.68199999999998-3.94L-46.68199999999998-3.94L-36.50199999999998-3.94L-36.50199999999998 0L-46.68199999999998 0Q-49.131999999999984 0 -50.81199999999998-1.7Q-52.49199999999998-3.41 -52.49199999999998-5.81L-52.49199999999998-5.81L-52.49199999999998-36.96L-48.55199999999998-36.96L-48.55199999999998-27.84L-36.50199999999998-27.84ZM-27.091999999999985-27.84L-27.091999999999985-27.84L-10.391999999999982-27.84Q-7.941999999999982-27.84 -6.241999999999983-26.14Q-4.531999999999982-24.43 -4.531999999999982-22.03L-4.531999999999982-22.03L-4.531999999999982-5.81Q-4.531999999999982-3.41 -6.241999999999983-1.7Q-7.941999999999982 0 -10.391999999999982 0L-10.391999999999982 0L-27.091999999999985 0Q-29.491999999999983 0 -31.201999999999984-1.7Q-32.90199999999998-3.41 -32.90199999999998-5.81L-32.90199999999998-5.81L-32.90199999999998-22.03Q-32.90199999999998-24.43 -31.201999999999984-26.14Q-29.491999999999983-27.84 -27.091999999999985-27.84ZM-10.391999999999982-23.9L-10.391999999999982-23.9L-27.091999999999985-23.9Q-27.86199999999998-23.9 -28.41199999999998-23.35Q-28.971999999999984-22.8 -28.971999999999984-22.03L-28.971999999999984-22.03L-28.971999999999984-5.81Q-28.971999999999984-5.04 -28.41199999999998-4.49Q-27.86199999999998-3.94 -27.091999999999985-3.94L-27.091999999999985-3.94L-10.391999999999982-3.94Q-9.621999999999982-3.94 -9.071999999999981-4.49Q-8.521999999999984-5.04 -8.521999999999984-5.81L-8.521999999999984-5.81L-8.521999999999984-22.03Q-8.521999999999984-22.8 -9.071999999999981-23.35Q-9.621999999999982-23.9 -10.391999999999982-23.9ZM 27.57400000000002-22.03L 27.57400000000002-22.03L 27.57400000000002-21.65L 23.59400000000002-21.65L 23.59400000000002-22.03Q 23.59400000000002-22.8  23.04400000000002-23.35Q 22.484000000000016-23.9  21.724000000000018-23.9L 21.724000000000018-23.9L 5.014000000000017-23.9Q 4.2440000000000175-23.9  3.6940000000000177-23.35Q 3.144000000000018-22.8  3.144000000000018-22.03L 3.144000000000018-22.03L 3.144000000000018-17.76Q 3.144000000000018-16.99  3.6940000000000177-16.44Q 4.2440000000000175-15.89  5.014000000000017-15.89L 5.014000000000017-15.89L 21.724000000000018-15.89Q 24.16400000000002-15.89  25.874000000000017-14.18Q 27.57400000000002-12.48  27.57400000000002-10.08L 27.57400000000002-10.08L 27.57400000000002-5.81Q 27.57400000000002-3.41  25.874000000000017-1.7Q 24.16400000000002 0  21.724000000000018 0L 21.724000000000018 0L 5.014000000000017 0Q 2.6140000000000176 0  0.9140000000000175-1.7Q-0.7959999999999825-3.41 -0.7959999999999825-5.81L-0.7959999999999825-5.81L-0.7959999999999825-6.19L 3.144000000000018-6.19L 3.144000000000018-5.81Q 3.144000000000018-5.04  3.6940000000000177-4.49Q 4.2440000000000175-3.94  5.014000000000017-3.94L 5.014000000000017-3.94L 21.724000000000018-3.94Q 22.484000000000016-3.94  23.04400000000002-4.49Q 23.59400000000002-5.04  23.59400000000002-5.81L 23.59400000000002-5.81L 23.59400000000002-10.08Q 23.59400000000002-10.85  23.04400000000002-11.4Q 22.484000000000016-11.95  21.724000000000018-11.95L 21.724000000000018-11.95L 5.014000000000017-11.95Q 2.6140000000000176-11.95  0.9140000000000175-13.66Q-0.7959999999999825-15.36 -0.7959999999999825-17.76L-0.7959999999999825-17.76L-0.7959999999999825-22.03Q-0.7959999999999825-24.43  0.9140000000000175-26.14Q 2.6140000000000176-27.84  5.014000000000017-27.84L 5.014000000000017-27.84L 21.724000000000018-27.84Q 24.16400000000002-27.84  25.874000000000017-26.14Q 27.57400000000002-24.43  27.57400000000002-22.03ZM 60.17200000000002-27.74L 60.17200000000002 5.18Q 60.17200000000002 7.63  58.49200000000002 9.34Q 56.81200000000002 11.04  54.36200000000002 11.04L 54.36200000000002 11.04L 36.98200000000002 11.04L 36.98200000000002 7.06L 54.36200000000002 7.06Q 55.13200000000002 7.06  55.682000000000016 6.5Q 56.23200000000001 5.95  56.23200000000001 5.18L 56.23200000000001 5.18L 56.23200000000001 0L 37.652000000000015 0Q 35.25200000000002 0  33.55200000000002-1.7Q 31.852000000000018-3.41  31.852000000000018-5.81L 31.852000000000018-5.81L 31.852000000000018-27.74L 35.78200000000002-27.74L 35.78200000000002-5.81Q 35.78200000000002-5.04  36.33200000000002-4.49Q 36.89200000000002-3.94  37.652000000000015-3.94L 37.652000000000015-3.94L 54.36200000000002-3.94Q 55.13200000000002-3.94  55.682000000000016-4.49Q 56.23200000000001-5.04  56.23200000000001-5.81L 56.23200000000001-5.81L 56.23200000000001-27.74L 60.17200000000002-27.74ZM 64.58200000000002-27.84L 87.14200000000002-27.84Q 89.54200000000002-27.84  91.25200000000002-26.14Q 92.95200000000003-24.43  92.95200000000003-22.03L 92.95200000000003-22.03L 92.95200000000003 0L 89.01200000000001 0L 89.01200000000001-22.03Q 89.01200000000001-22.8  88.46200000000002-23.35Q 87.91200000000002-23.9  87.14200000000002-23.9L 87.14200000000002-23.9L 70.44200000000002-23.9Q 69.67200000000003-23.9  69.09200000000001-23.35Q 68.52200000000002-22.8  68.52200000000002-22.03L 68.52200000000002-22.03L 68.52200000000002 0L 64.58200000000002 0L 64.58200000000002-27.84ZM 102.70000000000003-3.94L 102.70000000000003-3.94L 125.26000000000002-3.94L 125.26000000000002 0L 102.70000000000003 0Q 100.30000000000003 0  98.59000000000003-1.7Q 96.89000000000003-3.41  96.89000000000003-5.81L 96.89000000000003-5.81L 96.89000000000003-22.03Q 96.89000000000003-24.43  98.59000000000003-26.14Q 100.30000000000003-27.84  102.70000000000003-27.84L 102.70000000000003-27.84L 125.16000000000003-27.84L 125.16000000000003-23.9L 102.70000000000003-23.9Q 101.93000000000002-23.9  101.38000000000002-23.35Q 100.82000000000002-22.8  100.82000000000002-22.03L 100.82000000000002-22.03L 100.82000000000002-5.81Q 100.82000000000002-5.04  101.38000000000002-4.49Q 101.93000000000002-3.94  102.70000000000003-3.94Z"
    ></path>
    <path
            transform="matrix(0.4, 0, 0, 0.4, 150, 200)"
            d="M-156.418-33.02L-166.598-33.02Q-167.368-33.02 -167.918-32.47Q-168.46800000000002-31.92 -168.46800000000002-31.15L-168.46800000000002-31.15L-168.46800000000002-27.84L-156.418-27.84L-156.418-23.9L-168.46800000000002-23.9L-168.46800000000002 0L-172.40800000000002 0L-172.40800000000002-31.15Q-172.40800000000002-33.6 -170.728-35.28Q-169.048-36.96 -166.598-36.96L-166.598-36.96L-156.418-36.96L-156.418-33.02ZM-139.982 0L-143.912 0L-143.912-27.84L-139.982-27.84L-139.982 0ZM-143.912-33.02L-143.912-36.96L-139.982-36.96L-139.982-33.02L-143.912-33.02ZM-124.928-5.81L-124.928-36.96L-120.99799999999999-36.96L-120.99799999999999-5.81Q-120.99799999999999-5.04 -120.448-4.49Q-119.88799999999999-3.94 -119.128-3.94L-119.128-3.94L-114.41799999999999-3.94L-114.41799999999999 0L-119.128 0Q-121.52799999999999 0 -123.228-1.7Q-124.928-3.41 -124.928-5.81L-124.928-5.81ZM-96.392-27.84L-79.69200000000001-27.84Q-77.242-27.84 -75.542-26.14Q-73.832-24.43 -73.832-22.03L-73.832-22.03L-73.832-11.95L-98.272-11.95L-98.272-5.81Q-98.272-5.04 -97.712-4.49Q-97.162-3.94 -96.392-3.94L-96.392-3.94L-73.832-3.94L-73.832 0L-96.392 0Q-98.792 0 -100.502-1.7Q-102.202-3.41 -102.202-5.81L-102.202-5.81L-102.202-22.03Q-102.202-24.43 -100.502-26.14Q-98.792-27.84 -96.392-27.84L-96.392-27.84ZM-98.272-22.03L-98.272-15.89L-77.822-15.89L-77.822-22.03Q-77.822-22.8 -78.372-23.35Q-78.922-23.9 -79.69200000000001-23.9L-79.69200000000001-23.9L-96.392-23.9Q-97.162-23.9 -97.712-23.35Q-98.272-22.8 -98.272-22.03L-98.272-22.03ZM-31.766-22.03L-31.766-22.03L-31.766-21.65L-35.745999999999995-21.65L-35.745999999999995-22.03Q-35.745999999999995-22.8 -36.296-23.35Q-36.856-23.9 -37.616-23.9L-37.616-23.9L-54.326-23.9Q-55.096000000000004-23.9 -55.646-23.35Q-56.196-22.8 -56.196-22.03L-56.196-22.03L-56.196-17.76Q-56.196-16.99 -55.646-16.44Q-55.096000000000004-15.89 -54.326-15.89L-54.326-15.89L-37.616-15.89Q-35.176-15.89 -33.466-14.18Q-31.766-12.48 -31.766-10.08L-31.766-10.08L-31.766-5.81Q-31.766-3.41 -33.466-1.7Q-35.176 0 -37.616 0L-37.616 0L-54.326 0Q-56.726 0 -58.426-1.7Q-60.136-3.41 -60.136-5.81L-60.136-5.81L-60.136-6.19L-56.196-6.19L-56.196-5.81Q-56.196-5.04 -55.646-4.49Q-55.096000000000004-3.94 -54.326-3.94L-54.326-3.94L-37.616-3.94Q-36.856-3.94 -36.296-4.49Q-35.745999999999995-5.04 -35.745999999999995-5.81L-35.745999999999995-5.81L-35.745999999999995-10.08Q-35.745999999999995-10.85 -36.296-11.4Q-36.856-11.95 -37.616-11.95L-37.616-11.95L-54.326-11.95Q-56.726-11.95 -58.426-13.66Q-60.136-15.36 -60.136-17.76L-60.136-17.76L-60.136-22.03Q-60.136-24.43 -58.426-26.14Q-56.726-27.84 -54.326-27.84L-54.326-27.84L-37.616-27.84Q-35.176-27.84 -33.466-26.14Q-31.766-24.43 -31.766-22.03ZM 20.078-27.84L 20.078-23.9L 8.027999999999999-23.9L 8.027999999999999-5.81Q 8.027999999999999-5.04  8.578-4.49Q 9.127999999999998-3.94  9.897999999999998-3.94L 9.897999999999998-3.94L 20.078-3.94L 20.078 0L 9.897999999999998 0Q 7.447999999999999 0  5.767999999999998-1.7Q 4.087999999999998-3.41  4.087999999999998-5.81L 4.087999999999998-5.81L 4.087999999999998-36.96L 8.027999999999999-36.96L 8.027999999999999-27.84L 20.078-27.84ZM 38.488-27.84L 38.488-27.84L 55.188-27.84Q 57.638-27.84  59.337999999999994-26.14Q 61.048-24.43  61.048-22.03L 61.048-22.03L 61.048-5.81Q 61.048-3.41  59.337999999999994-1.7Q 57.638 0  55.188 0L 55.188 0L 38.488 0Q 36.088 0  34.378-1.7Q 32.678-3.41  32.678-5.81L 32.678-5.81L 32.678-22.03Q 32.678-24.43  34.378-26.14Q 36.088-27.84  38.488-27.84ZM 55.188-23.9L 55.188-23.9L 38.488-23.9Q 37.717999999999996-23.9  37.168-23.35Q 36.608-22.8  36.608-22.03L 36.608-22.03L 36.608-5.81Q 36.608-5.04  37.168-4.49Q 37.717999999999996-3.94  38.488-3.94L 38.488-3.94L 55.188-3.94Q 55.958-3.94  56.507999999999996-4.49Q 57.05799999999999-5.04  57.05799999999999-5.81L 57.05799999999999-5.81L 57.05799999999999-22.03Q 57.05799999999999-22.8  56.507999999999996-23.35Q 55.958-23.9  55.188-23.9ZM 124.78999999999999-22.03L 124.78999999999999 5.14Q 124.78999999999999 7.58  123.11 9.29Q 121.43 10.99  118.98 10.99L 118.98 10.99L 101.6 10.99L 101.6 7.01L 118.98 7.01Q 119.75 7.01  120.3 6.46Q 120.85 5.9  120.85 5.14L 120.85 5.14L 120.85 0L 102.28 0Q 99.88 0  98.17-1.7Q 96.47-3.41  96.47-5.81L 96.47-5.81L 96.47-22.03Q 96.47-24.43  98.17-26.14Q 99.88-27.84  102.28-27.84L 102.28-27.84L 118.98-27.84Q 121.43-27.84  123.11-26.14Q 124.78999999999999-24.43  124.78999999999999-22.03L 124.78999999999999-22.03ZM 102.28-3.94L 102.28-3.94L 118.98-3.94Q 119.75-3.94  120.3-4.49Q 120.85-5.04  120.85-5.81L 120.85-5.81L 120.85-22.03Q 120.85-22.8  120.3-23.35Q 119.75-23.9  118.98-23.9L 118.98-23.9L 102.28-23.9Q 101.51-23.9  100.96-23.35Q 100.4-22.8  100.4-22.03L 100.4-22.03L 100.4-5.81Q 100.4-5.04  100.96-4.49Q 101.51-3.94  102.28-3.94ZM 142.714 0L 138.784 0L 138.784-27.84L 142.714-27.84L 142.714 0ZM 138.784-33.02L 138.784-36.96L 142.714-36.96L 142.714-33.02L 138.784-33.02ZM 173.798-27.84L 173.798-23.9L 161.748-23.9L 161.748-5.81Q 161.748-5.04  162.298-4.49Q 162.848-3.94  163.618-3.94L 163.618-3.94L 173.798-3.94L 173.798 0L 163.618 0Q 161.168 0  159.488-1.7Q 157.808-3.41  157.808-5.81L 157.808-5.81L 157.808-36.96L 161.748-36.96L 161.748-27.84L 173.798-27.84Z"
    ></path>
    <g
            transform="matrix(-0.8470707535743713, 0.6249034404754639, -0.6249034404754639, -0.8470707535743713, 250, 80)"
    >
        <path
                d="M3.2 70.5L3.5 70.7L18.6 81.7L18.8 81.8L19 81.9L66.6 116.4L66.6 97.4L115.4 97.4L124.8 97.4L124.8 70.5Z"
        ></path>
        <path
                d="M124.8 57.5L124.5 57.3L109.4 46.3L109.2 46.2L109 46.1L61.4 11.6L61.4 30.6L12.6 30.6L3.2 30.6L3.2 57.5Z"
        ></path>
    </g>
</svg>